---
Mind Map, generated by [the IntelliJIdea port of the NB Mind Map plugin](https://github.com/raydac/netbeans-mmd-plugin)
> __version__=`1.0`,showJumps=`true`
---


classDiagram
    direction TB

    class MMPBSASystem{

    }


%%    class DeltaEnergySubSystem{
%%        +pd.DataFrame data
%%        +get_data()
%%        +get_method()
%%        +plot()
%%    }
%%    Enthalpy --* DeltaEnergySubSystem

%%    EnergySubSystem --|> DeltaEnergySubSystem

%% Enthalpy
    class Enthalpy {

    }
    MMPBSASystem --* Enthalpy

    class EnthalpySubSystem {

    }
    Enthalpy --* EnthalpySubSystem

    Enthalpy --* EnthalpySubSystems

    EnthalpySubSystems --> EnthalpySubSystem



    class EnthalpyMethod {

    }
    EnthalpySubSystem --* EnthalpyMethod
    EnthalpySubSystems --> EnthalpyMethod
    class EnthalpySystemComponent {

    }
    EnthalpyMethod --* EnthalpySystemComponent

    class EnthalpyTerm {

    }
    EnthalpySystemComponent --* EnthalpyTerm

%% Entropy
    class Entropy {

    }
    MMPBSASystem --* Entropy

    class EntropyMethod {

    }
    Entropy --* EntropyMethod

   class EntropySystemComponent {

    }
    EntropyMethod --* EntropySystemComponent

    class EntropyTerm {

    }
    EntropySystemComponent --* EntropyTerm

%%  BFE
    class BFE {

    }
    MMPBSASystem --* BFE

    class BFEComposedMethod {

    }
    BFE --* BFEComposedMethod


%%
%%%%   Decomp structure
%%    class DecompEnergySubSystem{
%%        +pd.DataFrame data
%%        +get_data()
%%        +get_method()
%%        +plot()
%%    }
    MMPBSASystem --* Decomp
%%
%%    class DeltaDecompEnergySubSystem{
%%        +str Parents
%%    }
%%    DecompEnergy --* DeltaDecompEnergySubSystem
%%
%%    DecompEnergySubSystem --|> DeltaDecompEnergySubSystem
%%
%%    class DecompEnergyMethod {
%%
%%    }
%%    DecompEnergySubSystem --* DecompEnergyMethod
%%
%%    class DecompEnergySystemComponent {
%%
%%    }
%%    DecompEnergyMethod --* DecompEnergySystemComponent
%%
%%    class DecompPairResidue {
%%
%%    }
%%    DecompEnergySystemComponent --* DecompPairResidue : Per-Wise
%%
%%    class DecompResidue {
%%
%%    }
%%    DecompEnergySystemComponent --* DecompResidue : Per-Residue
%%    DecompPairResidue --* DecompResidue : Per-Wise
%%
%%    class DecompEnergyTerm {
%%
%%    }
%%    DecompResidue --* DecompEnergyTerm


